PathFileType	4	(X/Y/Z)	C:\Users\italobelli\Desktop\GitHub\PTbot_officialCBL\Personal_Results\FLX02_noisy1.trc
DataRate	CameraRate	NumFrames	NumMarkers	Units	OrigDataRate	OrigDataStartFrame	OrigNumFrames
106.125000	106.125000	38	9	m	106.125000	638	850
Frame#	Time		gu		centelbow		EpL		centpxt8		centijc7		ij		ts		aa		ai
			X1	Y1	Z1	X2	Y2	Z2	X3	Y3	Z3	X4	Y4	Z4	X5	Y5	Z5	X6	Y6	Z6	X7	Y7	Z7	X8	Y8	Z8	X9	Y9	Z9

638	6.0024	-0.088744	0.013741	0.15351	0.062365	-0.16623	0.25457	0.073789	-0.14101	0.27104	-0.046816	-0.15316	-0.008669	-0.046816	0.031938	-0.008669	0	0	0	-0.14758	0.010216	0.041256	-0.1218	0.038871	0.15413	-0.14598	-0.098463	0.073994
639	6.0118	-0.088672	0.013355	0.15378	0.060993	-0.16813	0.25404	0.072653	-0.14315	0.27057	-0.046816	-0.15316	-0.008669	-0.046816	0.031938	-0.008669	0	0	0	-0.14747	0.010375	0.0413	-0.12174	0.038554	0.15434	-0.14601	-0.098428	0.073629
640	6.0212	-0.088598	0.01297	0.15406	0.059569	-0.17004	0.25348	0.071468	-0.14531	0.27008	-0.046816	-0.15316	-0.008669	-0.046816	0.031938	-0.008669	0	0	0	-0.14736	0.010536	0.041351	-0.12168	0.038235	0.15455	-0.14604	-0.098388	0.073266
641	6.0306	-0.08852	0.012585	0.15433	0.058093	-0.17195	0.2529	0.070234	-0.14747	0.26956	-0.046816	-0.15316	-0.008669	-0.046816	0.031938	-0.008669	0	0	0	-0.14725	0.010699	0.041408	-0.12161	0.037913	0.15476	-0.14607	-0.098345	0.072905
642	6.04	-0.08844	0.012201	0.1546	0.056568	-0.17387	0.2523	0.068954	-0.14963	0.26902	-0.046816	-0.15316	-0.008669	-0.046816	0.031938	-0.008669	0	0	0	-0.14714	0.010863	0.04147	-0.12154	0.03759	0.15497	-0.14609	-0.098298	0.072545
643	6.0495	-0.088357	0.011817	0.15487	0.054995	-0.17579	0.25167	0.067628	-0.15179	0.26846	-0.046816	-0.15316	-0.008669	-0.046816	0.031938	-0.008669	0	0	0	-0.14703	0.011029	0.041537	-0.12147	0.037265	0.15518	-0.14612	-0.098247	0.072187
644	6.0589	-0.088272	0.011435	0.15514	0.053377	-0.17771	0.25103	0.066259	-0.15395	0.26788	-0.046816	-0.15316	-0.008669	-0.046816	0.031938	-0.008669	0	0	0	-0.14692	0.011196	0.04161	-0.12139	0.036938	0.15539	-0.14614	-0.098192	0.071831
645	6.0683	-0.088184	0.011053	0.15541	0.051715	-0.17962	0.25037	0.064848	-0.1561	0.26727	-0.046816	-0.15316	-0.008669	-0.046816	0.031938	-0.008669	0	0	0	-0.14681	0.011365	0.041688	-0.12131	0.036611	0.1556	-0.14616	-0.098133	0.071477
646	6.0777	-0.088094	0.010672	0.15568	0.05001	-0.18153	0.24969	0.063396	-0.15826	0.26665	-0.046816	-0.15316	-0.008669	-0.046816	0.031938	-0.008669	0	0	0	-0.14669	0.011535	0.041771	-0.12123	0.036283	0.15581	-0.14619	-0.098072	0.071126
647	6.0872	-0.088003	0.010293	0.15595	0.048264	-0.18344	0.24899	0.061905	-0.16041	0.266	-0.046816	-0.15316	-0.008669	-0.046816	0.031938	-0.008669	0	0	0	-0.14658	0.011707	0.041858	-0.12114	0.035955	0.15602	-0.14621	-0.098006	0.070777
648	6.0966	-0.087909	0.0099151	0.15622	0.04648	-0.18534	0.24828	0.060376	-0.16255	0.26534	-0.046816	-0.15316	-0.008669	-0.046816	0.031938	-0.008669	0	0	0	-0.14646	0.011879	0.041949	-0.12106	0.035627	0.15624	-0.14622	-0.097938	0.07043
649	6.106	-0.087813	0.0095389	0.15648	0.044658	-0.18723	0.24755	0.05881	-0.16468	0.26466	-0.046816	-0.15316	-0.008669	-0.046816	0.031938	-0.008669	0	0	0	-0.14635	0.012052	0.042044	-0.12096	0.035299	0.15645	-0.14624	-0.097867	0.070086
650	6.1154	-0.087716	0.0091644	0.15675	0.0428	-0.18911	0.2468	0.05721	-0.16681	0.26397	-0.046816	-0.15316	-0.008669	-0.046816	0.031938	-0.008669	0	0	0	-0.14623	0.012227	0.042143	-0.12087	0.034972	0.15666	-0.14626	-0.097792	0.069745
651	6.1249	-0.087617	0.0087917	0.15701	0.040909	-0.19098	0.24604	0.055577	-0.16892	0.26326	-0.046816	-0.15316	-0.008669	-0.046816	0.031938	-0.008669	0	0	0	-0.14611	0.012402	0.042245	-0.12077	0.034647	0.15687	-0.14627	-0.097715	0.069407
652	6.1343	-0.087516	0.0084212	0.15727	0.038986	-0.19284	0.24527	0.053911	-0.17102	0.26253	-0.046816	-0.15316	-0.008669	-0.046816	0.031938	-0.008669	0	0	0	-0.146	0.012577	0.042351	-0.12067	0.034322	0.15708	-0.14629	-0.097635	0.069072
653	6.1437	-0.087414	0.0080528	0.15753	0.037032	-0.19468	0.24448	0.052216	-0.17311	0.26179	-0.046816	-0.15316	-0.008669	-0.046816	0.031938	-0.008669	0	0	0	-0.14588	0.012754	0.04246	-0.12057	0.033999	0.15728	-0.1463	-0.097553	0.06874
654	6.1531	-0.087311	0.0076867	0.15778	0.035049	-0.19651	0.24369	0.050491	-0.17518	0.26104	-0.046816	-0.15316	-0.008669	-0.046816	0.031938	-0.008669	0	0	0	-0.14576	0.012931	0.042571	-0.12047	0.033679	0.15749	-0.14631	-0.097468	0.068411
655	6.1625	-0.087206	0.0073231	0.15804	0.033039	-0.19832	0.24288	0.048739	-0.17723	0.26028	-0.046816	-0.15316	-0.008669	-0.046816	0.031938	-0.008669	0	0	0	-0.14564	0.013108	0.042685	-0.12037	0.03336	0.1577	-0.14632	-0.09738	0.068086
656	6.172	-0.087101	0.0069622	0.15829	0.031004	-0.20011	0.24206	0.046961	-0.17927	0.25951	-0.046816	-0.15316	-0.008669	-0.046816	0.031938	-0.008669	0	0	0	-0.14552	0.013286	0.042801	-0.12026	0.033044	0.1579	-0.14633	-0.097291	0.067764
657	6.1814	-0.086994	0.006604	0.15854	0.028946	-0.20188	0.24123	0.045158	-0.18128	0.25872	-0.046816	-0.15316	-0.008669	-0.046816	0.031938	-0.008669	0	0	0	-0.14541	0.013463	0.042919	-0.12015	0.032732	0.1581	-0.14634	-0.097199	0.067446
658	6.1908	-0.086886	0.0062488	0.15878	0.026865	-0.20363	0.2404	0.043332	-0.18327	0.25793	-0.046816	-0.15316	-0.008669	-0.046816	0.031938	-0.008669	0	0	0	-0.14529	0.013641	0.043039	-0.12005	0.032422	0.1583	-0.14635	-0.097106	0.067132
659	6.2002	-0.086778	0.0058966	0.15903	0.024764	-0.20535	0.23955	0.041485	-0.18524	0.25713	-0.046816	-0.15316	-0.008669	-0.046816	0.031938	-0.008669	0	0	0	-0.14517	0.013819	0.043161	-0.11994	0.032117	0.1585	-0.14635	-0.09701	0.066821
660	6.2097	-0.086669	0.0055477	0.15927	0.022645	-0.20705	0.2387	0.039618	-0.18719	0.25633	-0.046816	-0.15316	-0.008669	-0.046816	0.031938	-0.008669	0	0	0	-0.14505	0.013997	0.043284	-0.11983	0.031815	0.1587	-0.14636	-0.096913	0.066515
661	6.2191	-0.08656	0.0052022	0.1595	0.020509	-0.20873	0.23785	0.037732	-0.18911	0.25552	-0.046816	-0.15316	-0.008669	-0.046816	0.031938	-0.008669	0	0	0	-0.14493	0.014174	0.043408	-0.11972	0.031518	0.1589	-0.14636	-0.096814	0.066213
662	6.2285	-0.08645	0.0048601	0.15974	0.018357	-0.21037	0.23699	0.035829	-0.191	0.2547	-0.046816	-0.15316	-0.008669	-0.046816	0.031938	-0.008669	0	0	0	-0.14481	0.014352	0.043532	-0.11961	0.031225	0.15909	-0.14636	-0.096714	0.065915
663	6.2379	-0.086339	0.0045218	0.15997	0.016193	-0.21199	0.23612	0.033911	-0.19286	0.25388	-0.046816	-0.15316	-0.008669	-0.046816	0.031938	-0.008669	0	0	0	-0.14469	0.014529	0.043658	-0.1195	0.030937	0.15928	-0.14636	-0.096613	0.065622
664	6.2473	-0.086229	0.0041873	0.16019	0.014017	-0.21357	0.23525	0.031978	-0.19469	0.25305	-0.046816	-0.15316	-0.008669	-0.046816	0.031938	-0.008669	0	0	0	-0.14457	0.014705	0.043783	-0.11939	0.030655	0.15946	-0.14636	-0.09651	0.065333
665	6.2568	-0.086118	0.0038567	0.16042	0.01183	-0.21513	0.23438	0.030033	-0.19649	0.25223	-0.046816	-0.15316	-0.008669	-0.046816	0.031938	-0.008669	0	0	0	-0.14444	0.014881	0.043909	-0.11928	0.030378	0.15965	-0.14636	-0.096406	0.065049
666	6.2662	-0.086007	0.0035303	0.16064	0.009636	-0.21664	0.23351	0.028076	-0.19826	0.2514	-0.046816	-0.15316	-0.008669	-0.046816	0.031938	-0.008669	0	0	0	-0.14432	0.015056	0.044034	-0.11917	0.030107	0.15983	-0.14636	-0.096301	0.06477
667	6.2756	-0.085897	0.0032082	0.16085	0.0074349	-0.21813	0.23263	0.02611	-0.19999	0.25057	-0.046816	-0.15316	-0.008669	-0.046816	0.031938	-0.008669	0	0	0	-0.1442	0.01523	0.044159	-0.11906	0.029842	0.16001	-0.14635	-0.096196	0.064496
668	6.285	-0.085786	0.0028904	0.16106	0.0052291	-0.21957	0.23176	0.024135	-0.20168	0.24974	-0.046816	-0.15316	-0.008669	-0.046816	0.031938	-0.008669	0	0	0	-0.14408	0.015404	0.044284	-0.11895	0.029584	0.16018	-0.14635	-0.096089	0.064227
669	6.2945	-0.085676	0.0025773	0.16127	0.0030201	-0.22098	0.23088	0.022154	-0.20334	0.24892	-0.046816	-0.15316	-0.008669	-0.046816	0.031938	-0.008669	0	0	0	-0.14396	0.015576	0.044407	-0.11884	0.029333	0.16035	-0.14634	-0.095982	0.063963
670	6.3039	-0.085566	0.0022688	0.16147	0.00080963	-0.22234	0.23001	0.020167	-0.20495	0.24809	-0.046816	-0.15316	-0.008669	-0.046816	0.031938	-0.008669	0	0	0	-0.14384	0.015748	0.044529	-0.11873	0.029089	0.16052	-0.14633	-0.095874	0.063704
671	6.3133	-0.085457	0.0019652	0.16167	-0.0014005	-0.22367	0.22914	0.018177	-0.20653	0.24727	-0.046816	-0.15316	-0.008669	-0.046816	0.031938	-0.008669	0	0	0	-0.14372	0.015918	0.04465	-0.11862	0.028853	0.16069	-0.14632	-0.095767	0.063451
672	6.3227	-0.085349	0.0016667	0.16187	-0.0036087	-0.22495	0.22827	0.016184	-0.20806	0.24646	-0.046816	-0.15316	-0.008669	-0.046816	0.031938	-0.008669	0	0	0	-0.1436	0.016087	0.044769	-0.11852	0.028625	0.16085	-0.14631	-0.095658	0.063204
673	6.3322	-0.085241	0.0013733	0.16206	-0.0058131	-0.22618	0.22741	0.014191	-0.20955	0.24564	-0.046816	-0.15316	-0.008669	-0.046816	0.031938	-0.008669	0	0	0	-0.14348	0.016254	0.044887	-0.11842	0.028405	0.161	-0.1463	-0.09555	0.062962
674	6.3416	-0.085134	0.0010852	0.16224	-0.0080122	-0.22737	0.22655	0.012198	-0.21099	0.24484	-0.046816	-0.15316	-0.008669	-0.046816	0.031938	-0.008669	0	0	0	-0.14336	0.01642	0.045002	-0.11831	0.028193	0.16115	-0.14629	-0.095442	0.062727
675	6.351	-0.085028	0.00080257	0.16242	-0.010204	-0.22852	0.2257	0.010207	-0.21239	0.24404	-0.046816	-0.15316	-0.008669	-0.046816	0.031938	-0.008669	0	0	0	-0.14324	0.016584	0.045115	-0.11821	0.027991	0.1613	-0.14628	-0.095334	0.062497
